<?xml version="1.0" standalone="no"?>
<!DOCTYPE svg PUBLIC "-//W3C//DTD SVG 20010904//EN"
 "http://www.w3.org/TR/2001/REC-SVG-20010904/DTD/svg10.dtd">
<svg version="1.0" xmlns="http://www.w3.org/2000/svg"
 width="736.000000pt" height="542.000000pt" viewBox="0 0 736.000000 542.000000"
 preserveAspectRatio="xMidYMid meet">

<g transform="translate(0.000000,542.000000) scale(0.100000,-0.100000)"
fill="#000000" stroke="none">
<path d="M0 2710 l0 -2710 3680 0 3680 0 0 1664 c0 1811 3 1704 -54 1651 -23
-21 -91 -44 -100 -34 -2 2 -6 16 -10 31 -5 23 -4 27 11 21 16 -5 16 -4 2 8
-23 21 -51 68 -45 78 3 4 -6 19 -19 31 -14 13 -25 29 -25 37 0 7 -4 13 -8 13
-5 0 -14 11 -20 25 -6 13 -26 31 -45 39 -18 7 -43 25 -54 40 -12 14 -26 26
-32 26 -6 0 -11 5 -11 10 0 6 -9 14 -19 18 -31 11 -81 82 -81 114 0 17 -6 31
-16 35 -10 4 -14 13 -10 29 6 22 5 23 -46 17 -81 -10 -112 -60 -52 -84 32 -11
30 -25 -5 -43 -42 -22 -56 -71 -26 -96 20 -17 54 -94 61 -141 5 -29 1 -44 -15
-67 -11 -17 -21 -35 -21 -41 0 -16 70 -45 102 -43 35 3 37 -15 3 -30 -14 -6
-25 -19 -25 -29 0 -11 -9 -19 -22 -21 -13 -2 -24 -11 -26 -21 -4 -22 25 -57
48 -57 16 0 64 -55 66 -75 0 -5 -8 -25 -19 -43 -10 -18 -22 -44 -26 -59 -4
-15 -15 -27 -26 -29 -21 -3 -47 -32 -40 -44 3 -4 17 -10 32 -13 16 -4 50 -27
78 -52 52 -46 45 -60 -13 -25 -18 11 -39 20 -48 20 -8 0 -27 11 -42 25 -31 29
-57 32 -66 9 -10 -27 -7 -32 34 -50 45 -20 129 -112 132 -146 3 -20 -2 -23
-30 -25 -18 -1 -38 -6 -45 -11 -7 -5 -28 -12 -47 -16 -23 -4 -39 -14 -45 -29
-6 -12 -20 -23 -32 -25 -13 -2 -23 -10 -23 -18 0 -7 -16 -24 -35 -36 -19 -13
-35 -28 -35 -33 0 -23 32 -55 55 -55 13 0 27 -5 30 -10 7 -12 -12 -72 -37
-115 -11 -18 -18 -50 -18 -82 0 -46 2 -51 20 -46 13 3 20 0 21 -8 0 -8 3 -40
5 -71 3 -35 1 -58 -5 -58 -5 0 -15 -17 -22 -37 -14 -45 -26 -55 -56 -48 -19 4
-23 1 -23 -19 0 -34 10 -56 26 -56 7 0 16 -15 20 -34 10 -56 -49 -119 -63 -66
-8 31 -21 23 -29 -17 -8 -48 -31 -92 -49 -99 -12 -5 -45 -57 -45 -71 0 -1 8
-3 18 -3 20 0 82 52 82 69 0 6 7 11 15 11 8 0 15 -8 15 -18 0 -10 6 -26 13
-37 22 -32 26 -63 11 -76 -8 -6 -14 -19 -14 -28 0 -18 -35 -61 -49 -61 -5 0
-8 -17 -8 -37 1 -21 -5 -51 -14 -68 -11 -22 -12 -37 -5 -57 13 -36 -5 -75 -36
-80 -19 -2 -23 -9 -22 -34 1 -24 -4 -33 -28 -43 -22 -10 -32 -10 -43 -1 -19
15 -70 9 -70 -9 0 -24 -22 -23 -45 1 l-21 23 -20 -24 c-17 -20 -29 -64 -13
-49 3 4 21 -4 40 -17 20 -14 64 -28 107 -35 66 -11 76 -16 115 -57 33 -34 41
-48 32 -57 -7 -7 -13 -8 -18 0 -15 22 -73 56 -87 50 -22 -8 -18 -37 5 -43 23
-6 43 -63 26 -76 -8 -6 -7 -10 2 -14 18 -7 16 -79 -3 -87 -13 -5 -14 -17 -9
-71 5 -46 3 -65 -5 -65 -6 0 -11 -5 -11 -10 0 -6 -9 -21 -20 -33 -11 -12 -18
-27 -16 -33 7 -17 -26 -21 -172 -20 -128 1 -130 1 -198 37 -38 19 -68 41 -66
47 1 7 -2 12 -7 12 -5 0 -12 9 -16 20 -4 12 -14 19 -27 17 -11 -1 -23 4 -25
11 -3 8 1 10 13 5 16 -6 16 -3 -3 28 -14 20 -30 34 -43 34 -27 0 -62 59 -62
104 1 76 -7 101 -33 101 -13 0 -31 10 -39 22 -15 21 -16 21 -36 3 -21 -19 -90
-30 -90 -14 0 13 -67 11 -90 -3 -17 -11 -22 -10 -29 1 -5 7 -15 11 -22 9 -8
-3 -35 5 -60 18 -41 20 -49 21 -65 9 -25 -19 -53 -19 -60 0 -4 9 -19 15 -40
15 -23 0 -34 5 -34 14 0 31 -38 26 -112 -14 -42 -22 -82 -40 -90 -40 -9 0 -27
-9 -41 -20 -27 -21 -57 -27 -57 -10 0 6 -11 10 -25 10 -21 0 -25 -5 -25 -29 0
-47 -96 -166 -161 -200 -80 -42 -160 -38 -262 15 -26 13 -57 24 -70 24 -37 0
-93 19 -117 40 -13 11 -27 20 -31 20 -4 0 -22 25 -39 55 -20 35 -38 55 -50 55
-9 0 -23 6 -30 14 -9 12 -7 22 12 48 26 37 54 65 71 71 7 2 9 8 5 12 -4 4 -22
-5 -40 -20 -27 -23 -39 -26 -75 -22 -49 5 -56 1 -43 -23 8 -15 -1 -29 -45 -75
-60 -63 -78 -66 -107 -15 -10 17 -36 39 -63 51 -66 31 -75 56 -39 113 16 25
37 47 48 50 30 8 66 -20 73 -55 6 -32 24 -46 43 -34 8 5 8 11 1 19 -6 7 -12
32 -15 55 -2 26 -10 47 -22 55 -21 16 -24 11 76 124 36 41 76 80 90 87 44 23
113 93 107 109 -6 14 16 39 43 49 17 5 19 4 -44 23 -16 5 -28 13 -27 17 2 5
-9 21 -24 37 -14 15 -28 42 -30 60 -3 19 -10 37 -16 41 -7 4 -9 18 -5 36 5 23
3 32 -8 36 -18 7 -22 37 -5 37 7 0 8 7 4 18 -13 32 -12 102 2 113 7 6 13 17
13 25 0 7 6 19 13 26 7 7 18 26 25 42 l13 28 -36 -6 c-34 -7 -36 -6 -26 13 6
11 21 21 33 23 18 2 23 9 22 33 -1 17 -5 40 -9 53 -6 18 -3 24 13 29 35 9 40
83 5 83 -8 0 -11 5 -8 10 4 6 4 24 0 40 -5 22 -13 30 -33 32 -21 2 -33 14 -54
56 -27 52 -31 100 -13 145 8 18 25 23 25 7 0 -6 14 -24 30 -42 17 -17 30 -36
30 -43 0 -7 7 -18 16 -26 13 -10 17 -10 25 2 5 8 7 23 3 34 -3 11 -8 31 -11
45 -3 14 -13 33 -21 43 -22 25 -17 105 8 132 22 23 26 45 9 45 -8 0 -9 35 -4
124 5 86 3 130 -4 145 -9 15 -9 27 -1 42 9 15 8 24 0 35 -10 11 -9 21 3 46 8
18 18 47 22 64 3 18 15 40 26 50 10 9 19 25 19 36 0 22 9 23 25 1 7 -10 19
-14 29 -10 19 7 17 32 -1 32 -6 0 -15 3 -19 8 -4 4 -15 7 -24 7 -26 0 -42 24
-28 38 7 7 20 12 29 12 35 0 29 20 -11 40 -30 16 -40 26 -40 45 0 14 4 25 9
25 6 0 6 12 1 30 -6 22 -5 30 4 30 24 0 45 35 52 87 3 29 13 58 20 64 24 20
15 35 -27 48 -23 7 -72 27 -109 45 -37 18 -77 35 -89 39 -22 5 -22 4 -16 -44
5 -33 3 -54 -5 -64 -15 -18 -1 -20 35 -3 21 9 36 8 79 -5 68 -22 83 -38 62
-69 -8 -13 -18 -40 -21 -60 -5 -25 -19 -48 -44 -70 -36 -34 -54 -60 -91 -133
-10 -22 -30 -53 -44 -70 -24 -30 -25 -30 -123 -30 -100 0 -180 14 -339 61 -80
23 -114 46 -114 76 0 11 -11 15 -47 15 -52 -1 -109 18 -134 45 -10 11 -16 38
-17 79 -3 87 34 145 128 201 19 12 46 34 60 49 14 15 43 34 65 43 22 9 45 26
50 39 6 12 28 31 50 42 22 11 56 30 76 43 20 12 42 22 50 22 7 0 25 12 41 27
20 19 38 26 73 28 62 2 71 14 40 55 -30 40 -31 50 -7 50 30 0 78 -36 92 -69
12 -30 14 -31 65 -27 29 2 63 11 76 20 13 9 39 16 59 16 19 0 53 5 75 11 54
14 229 36 343 42 99 6 106 2 76 -41 -14 -21 -14 -25 0 -47 9 -13 16 -33 16
-45 0 -17 -6 -20 -39 -20 -46 0 -71 -26 -71 -72 0 -24 -8 -32 -53 -54 -49 -24
-97 -74 -97 -101 0 -7 7 -18 15 -27 12 -12 22 -13 45 -4 27 9 35 19 31 41 -1
4 12 15 29 25 19 11 30 25 30 39 0 16 13 31 40 48 22 14 40 32 40 39 0 18 50
36 70 25 8 -4 23 -10 33 -13 9 -3 20 -14 23 -23 18 -56 47 -123 54 -123 14 0
68 31 80 45 18 21 67 19 97 -5 14 -11 40 -20 57 -20 39 0 104 -34 132 -68 l21
-26 33 24 33 24 15 -22 c19 -29 32 -28 66 9 41 43 80 38 84 -11 2 -29 10 -40
46 -63 24 -15 65 -48 91 -74 44 -43 55 -48 112 -55 72 -8 99 -1 152 41 20 16
69 45 109 65 75 38 85 53 61 98 -14 25 -68 48 -115 48 -20 0 -62 12 -92 27
l-55 27 -46 -18 c-44 -17 -219 -41 -229 -32 -20 21 61 106 101 106 7 0 21 8
30 18 23 25 6 45 -35 44 -18 -1 -47 3 -65 9 -25 8 -37 7 -57 -7 -21 -13 -39
-15 -98 -9 -40 4 -106 7 -147 6 -74 -1 -93 5 -140 46 -27 23 -120 52 -167 53
-28 0 -53 -8 -78 -25 -20 -14 -39 -25 -41 -25 -2 0 -7 17 -11 38 -4 20 -11 45
-15 54 -12 22 -1 48 20 48 9 0 23 15 31 33 8 17 22 32 32 32 9 0 25 8 35 17
10 10 42 23 70 29 38 9 54 18 62 36 15 33 14 47 -9 86 -17 29 -20 47 -16 132
3 76 8 100 20 107 9 5 16 17 16 27 0 31 -134 144 -186 157 -16 4 -31 10 -34
13 -3 3 -21 13 -41 22 -28 13 -38 26 -48 60 -7 24 -22 51 -33 60 -12 11 -15
20 -8 24 6 3 8 10 5 15 -13 22 17 18 37 -4 l23 -26 27 24 c23 21 26 30 21 60
-3 20 -10 36 -16 36 -8 0 -7 4 0 11 7 7 29 12 51 12 39 0 39 0 36 36 -1 20 -7
60 -13 90 -6 29 -11 55 -11 57 0 9 27 3 55 -12 47 -24 108 -29 128 -9 9 9 17
23 17 31 0 12 8 13 35 8 31 -5 36 -3 45 21 5 14 10 28 10 31 0 2 -1120 4
-2490 4 l-2490 0 0 -2710z m3870 2566 c109 -8 180 -20 253 -40 32 -9 68 -16
80 -16 11 0 61 -10 109 -22 77 -19 88 -24 88 -43 0 -14 -16 -35 -41 -56 -35
-29 -40 -38 -35 -65 3 -24 -1 -37 -17 -52 -50 -45 -64 -44 -337 23 -58 15
-123 31 -145 36 -22 6 -58 14 -80 20 -22 6 -52 13 -67 16 -16 3 -28 9 -28 14
0 5 -15 9 -34 9 -21 0 -36 6 -40 15 -3 8 -17 15 -31 15 -14 0 -25 5 -25 11 0
6 -7 9 -15 5 -22 -8 -97 28 -84 41 7 7 25 7 57 -2 73 -21 136 -34 141 -30 5 6
-21 28 -49 42 -14 7 -53 14 -88 17 -70 5 -80 9 -64 29 9 11 23 11 74 2 35 -6
77 -17 93 -24 17 -7 45 -11 63 -9 27 3 32 1 33 -17 0 -11 3 -14 6 -7 2 6 20
12 39 12 24 0 34 5 34 15 0 11 -11 15 -37 16 -21 0 -54 7 -73 14 l-35 13 33 7
c17 4 32 11 32 16 0 10 81 17 95 8 6 -4 48 -9 95 -13z m-570 4 c0 -5 -4 -10
-9 -10 -6 0 -13 5 -16 10 -3 6 1 10 9 10 9 0 16 -4 16 -10z m255 -10 c3 -5 -3
-10 -14 -10 -12 0 -21 5 -21 10 0 6 6 10 14 10 8 0 18 -4 21 -10z m-442 -7
c-7 -2 -19 -2 -25 0 -7 3 -2 5 12 5 14 0 19 -2 13 -5z m153 -20 c55 -4 83 -2
88 6 4 6 12 11 18 11 7 0 6 -5 -1 -14 -10 -11 -8 -16 5 -24 11 -6 15 -16 10
-27 -5 -14 -14 -16 -44 -11 -20 3 -66 8 -102 10 -36 2 -71 4 -77 5 -7 1 -13
11 -13 22 0 16 -5 20 -20 16 -11 -3 -20 -1 -20 3 0 11 40 19 60 13 8 -3 51 -7
96 -10z m1512 -741 c2 -7 -2 -10 -12 -6 -9 3 -16 11 -16 16 0 13 23 5 28 -10z
m-2588 -63 c0 -24 -18 -33 -35 -19 -18 15 -20 47 -2 53 17 6 37 -12 37 -34z
m85 -39 c-5 -17 -2 -20 23 -20 26 0 30 -4 39 -45 6 -25 8 -47 4 -49 -21 -13
-178 -70 -187 -68 -7 1 -14 -7 -17 -18 -3 -11 -10 -20 -16 -20 -21 0 -11 30
23 67 44 50 63 86 47 91 -18 6 -13 22 7 22 10 0 26 14 35 30 21 34 52 42 42
10z m-553 -461 c17 -12 44 -19 75 -19 44 0 54 -4 89 -40 21 -22 43 -40 47 -40
5 0 22 -9 38 -21 l29 -20 54 25 c30 14 58 31 61 36 9 15 48 12 74 -6 34 -24
86 -35 181 -38 65 -2 96 -9 133 -27 l47 -23 16 22 c21 31 34 27 34 -9 0 -30 1
-31 23 -16 12 8 37 18 55 22 26 5 38 2 62 -18 33 -28 21 -41 -29 -31 -26 5
-30 3 -40 -29 -10 -30 -8 -46 19 -124 23 -70 30 -107 29 -164 -2 -134 -43
-274 -96 -323 -30 -28 -107 -56 -155 -56 -46 0 -104 -43 -112 -83 -7 -37 -33
-66 -83 -91 -40 -20 -46 -31 -39 -62 5 -17 13 -24 31 -24 35 0 31 -22 -9 -58
-26 -23 -38 -45 -50 -93 -20 -76 -43 -114 -101 -168 -46 -42 -72 -50 -93 -29
-27 27 -3 -120 32 -197 7 -16 32 -147 56 -290 39 -238 144 -862 157 -927 9
-47 -4 -78 -32 -78 -14 0 -25 5 -25 10 0 6 -44 10 -111 10 l-110 0 -13 33 c-8
17 -19 75 -26 127 -6 52 -29 230 -51 395 -61 461 -80 650 -70 698 9 49 5 155
-8 212 -6 22 -8 50 -4 62 3 13 2 31 -2 40 -4 10 -7 30 -6 45 3 34 -17 40 -115
37 -79 -3 -93 -9 -70 -28 7 -6 11 -22 9 -35 -4 -18 3 -30 29 -49 18 -14 45
-29 61 -32 29 -8 52 -38 42 -55 -24 -39 -148 49 -202 144 -18 31 -16 56 5 56
13 0 14 2 4 9 -19 12 -25 78 -13 131 12 54 8 61 -20 29 -37 -42 -49 -82 -38
-124 13 -46 3 -58 -42 -53 -31 3 -35 8 -49 49 -8 26 -20 53 -26 60 -6 8 -15
24 -19 37 -4 14 -13 21 -23 20 -11 -2 -18 5 -20 18 -2 16 4 23 25 29 l28 8
-35 9 c-19 6 -53 11 -75 12 -69 4 -133 18 -152 31 -31 23 -9 26 58 9 195 -51
357 17 507 214 31 40 32 43 18 70 -8 15 -17 40 -21 55 -5 27 -29 46 -42 33
-10 -10 -5 -70 6 -74 6 -2 11 -17 11 -33 0 -25 -4 -29 -29 -29 -22 0 -37 -10
-61 -40 -33 -41 -68 -56 -55 -22 16 42 27 112 21 135 -9 38 -49 81 -100 108
-26 13 -46 30 -46 38 0 18 83 8 160 -20 81 -30 104 -33 119 -15 14 16 1 32
-67 83 -92 69 -303 86 -457 37 -57 -19 -165 -75 -165 -86 0 -5 -4 -8 -9 -8 -4
0 -6 11 -3 25 2 14 8 25 13 25 5 0 9 8 9 18 0 10 7 27 15 38 33 43 6 46 -49 4
-65 -49 -110 -146 -87 -188 9 -17 7 -27 -14 -58 -14 -20 -25 -45 -25 -54 0
-28 -38 -13 -57 23 -13 27 -14 44 -3 141 17 150 34 181 115 206 49 15 71 34
79 66 4 16 14 24 29 25 60 2 175 28 223 50 23 10 49 19 58 19 26 0 83 48 90
74 7 30 70 86 96 86 19 0 80 52 80 68 0 16 45 50 80 60 43 12 87 5 122 -19z
m1078 -14 c0 -8 8 -15 17 -15 16 0 16 -1 0 -17 -16 -16 -18 -15 -42 7 -32 30
-32 40 0 40 16 0 25 -6 25 -15z m-1900 -281 c0 -8 -5 -14 -11 -14 -7 0 -17 -8
-24 -17 -11 -15 -17 -15 -39 -5 -36 16 -33 25 17 44 45 17 57 15 57 -8z m-180
-79 c-14 -17 -46 -20 -55 -5 -11 17 6 51 28 59 18 7 24 4 30 -16 6 -15 5 -29
-3 -38z m6080 21 c0 -2 -7 -7 -16 -10 -8 -3 -12 -2 -9 4 6 10 25 14 25 6z m60
-76 c0 -5 -7 -10 -16 -10 -8 0 -12 5 -9 10 3 6 10 10 16 10 5 0 9 -4 9 -10z
m168 -59 c64 -33 152 -133 152 -173 0 -36 -40 -44 -116 -22 -117 33 -144 60
-126 123 6 20 14 48 17 64 6 32 22 34 73 8z m-6388 -42 c0 -11 -4 -17 -10 -14
-5 3 -10 13 -10 21 0 8 5 14 10 14 6 0 10 -9 10 -21z m-37 -44 c-7 -21 -13
-19 -13 6 0 11 4 18 10 14 5 -3 7 -12 3 -20z m52 -35 c-3 -5 -12 -7 -20 -3
-21 7 -19 13 6 13 11 0 18 -4 14 -10z m680 -15 c0 -22 -31 -33 -47 -17 -17 17
-1 44 24 40 15 -2 23 -10 23 -23z m-215 -25 c0 -6 -10 -24 -22 -40 -25 -35
-36 -124 -20 -169 6 -17 8 -31 3 -31 -24 0 -100 118 -101 157 0 19 62 72 95
82 41 12 45 13 45 1z m-132 -308 c28 -29 52 -57 52 -62 0 -15 -21 -12 -42 7
-17 15 -19 15 -37 -1 -27 -25 -40 -19 -99 46 -67 75 -75 103 -36 136 l29 25
40 -49 c22 -27 64 -72 93 -102z m2120 106 c6 -6 30 -11 54 -11 24 0 47 -2 51
-4 13 -8 -34 -43 -57 -43 -12 0 -31 -3 -42 -6 -17 -4 -23 0 -28 19 -3 14 -9
32 -12 41 -7 19 16 22 34 4z m-73 -40 c27 -12 33 -35 11 -44 -18 -7 -66 24
-66 42 0 17 21 18 55 2z m140 -88 c22 -8 24 -13 15 -29 -13 -25 -13 -71 0 -71
6 0 10 -22 10 -48 0 -42 -3 -48 -22 -50 -34 -4 -91 -2 -95 2 -3 2 -10 27 -18
56 -16 61 -8 94 33 127 31 25 40 27 77 13z m-213 -87 c-3 -33 0 -42 15 -46 12
-3 13 -5 3 -6 -8 0 -35 17 -59 38 -51 44 -48 64 7 59 37 -3 37 -3 34 -45z
m1018 -59 c0 -14 -4 -23 -9 -20 -5 3 -7 15 -4 26 7 28 13 25 13 -6z m-737 -39
c-6 -17 -25 -15 -31 3 -2 7 5 12 17 12 14 0 19 -5 14 -15z m-13 -70 c0 -32
-35 -53 -48 -29 -7 12 -4 23 7 35 22 26 41 24 41 -6z m363 -337 c37 -39 34
-43 -13 -16 -33 19 -40 28 -39 53 0 27 1 28 12 11 7 -10 24 -32 40 -48z m-263
-179 c7 -11 9 -27 6 -35 -7 -17 -33 -18 -39 -1 -4 9 -8 8 -16 -3 -9 -12 -11
-11 -11 7 0 22 24 53 40 53 5 0 14 -9 20 -21z m590 -5 c0 -8 -5 -12 -10 -9 -6
4 -8 11 -5 16 9 14 15 11 15 -7z m-3 -50 c-3 -3 -12 -4 -19 -1 -8 3 -5 6 6 6
11 1 17 -2 13 -5z m-593 -37 c12 -33 -3 -52 -32 -43 -18 6 -36 51 -27 67 11
17 51 0 59 -24z m566 -67 c0 -5 -4 -10 -10 -10 -5 0 -10 5 -10 10 0 6 5 10 10
10 6 0 10 -4 10 -10z m-1653 -1132 l33 -20 -5 -101 c-5 -117 -21 -150 -74
-155 l-31 -3 6 43 c4 31 3 39 -5 28 -12 -18 -26 -6 -26 23 0 35 -34 34 -46 -2
-10 -28 -15 -31 -50 -31 l-40 0 2 53 c0 28 -4 75 -10 102 -8 37 -9 56 0 71 10
20 17 21 112 16 75 -4 109 -10 134 -24z m3070 -41 c-5 -15 -75 -30 -106 -22
-29 7 -22 15 21 24 53 12 90 11 85 -2z m-164 -22 c1 -6 -29 -11 -70 -13 -87
-3 -101 15 -15 21 75 5 83 4 85 -8z"/>
<path d="M3648 5183 c7 -3 16 -2 19 1 4 3 -2 6 -13 5 -11 0 -14 -3 -6 -6z"/>
<path d="M3660 5161 c0 -11 39 -26 47 -17 8 8 3 12 -24 20 -13 4 -23 3 -23 -3z"/>
<path d="M3735 5130 c3 -5 10 -10 16 -10 5 0 9 5 9 10 0 6 -7 10 -16 10 -8 0
-12 -4 -9 -10z"/>
<path d="M1610 3853 c-8 -3 -26 -16 -40 -28 -16 -14 -43 -24 -74 -28 -60 -6
-100 -34 -104 -73 -4 -37 15 -54 83 -79 28 -10 74 -36 104 -58 55 -41 77 -46
141 -33 27 5 45 20 79 64 25 32 67 75 93 96 51 40 55 50 36 91 -14 30 -38 37
-138 41 -41 1 -95 5 -120 8 -25 3 -52 3 -60 -1z"/>
<path d="M2185 3584 c-11 -2 -51 -11 -90 -20 -98 -22 -224 -100 -225 -141 0
-6 -9 -9 -20 -6 -14 4 -20 0 -20 -11 0 -9 -7 -30 -15 -47 -14 -26 -14 -30 0
-35 26 -10 64 5 102 41 36 34 151 95 178 95 25 0 17 -26 -16 -51 -46 -35 -72
-94 -66 -143 7 -50 32 -102 55 -115 9 -5 14 -13 10 -16 -13 -13 -100 59 -132
107 -24 37 -37 47 -58 47 -33 1 -36 -11 -6 -24 19 -9 54 -82 44 -92 -2 -3 -16
3 -30 12 -14 9 -30 14 -36 10 -16 -10 -12 -35 8 -42 9 -3 41 -24 71 -46 80
-59 149 -81 256 -82 123 0 213 34 290 111 83 81 132 200 119 286 -7 46 -40 92
-61 84 -7 -3 -21 3 -30 13 -40 42 -250 84 -328 65z m53 -125 c3 -28 -16 -43
-43 -33 -15 6 -21 45 -8 58 16 16 48 1 51 -25z m213 6 c54 -19 69 -38 69 -87
0 -44 -38 -135 -67 -161 -20 -18 -20 -17 -16 50 5 86 -14 126 -79 168 -26 17
-47 33 -47 38 -1 13 95 7 140 -8z"/>
<path d="M1852 3549 c-38 -37 -46 -58 -33 -93 18 -45 41 -26 41 34 0 16 4 31
9 34 7 5 22 56 17 56 -1 0 -16 -14 -34 -31z"/>
<path d="M817 3363 c-11 -19 -18 -73 -9 -73 5 0 12 17 15 37 6 36 4 52 -6 36z"/>
<path d="M1745 3149 c-4 -6 -5 -12 -4 -13 8 -7 69 7 69 15 0 13 -57 11 -65 -2z"/>
<path d="M2130 2960 c0 -5 7 -10 15 -10 8 0 15 5 15 10 0 6 -7 10 -15 10 -8 0
-15 -4 -15 -10z"/>
<path d="M1481 2871 c-9 -6 -15 -28 -15 -59 -1 -28 2 -48 6 -45 5 2 8 10 8 17
0 7 9 25 20 39 33 42 21 73 -19 48z"/>
<path d="M2180 2795 c0 -8 4 -15 10 -15 5 0 7 7 4 15 -4 8 -8 15 -10 15 -2 0
-4 -7 -4 -15z"/>
<path d="M1961 2618 c-6 -15 -4 -32 5 -50 8 -15 14 -41 14 -58 0 -41 19 -39
88 10 65 45 86 73 77 101 -9 27 -27 23 -46 -10 -11 -19 -27 -30 -51 -35 -52
-10 -71 1 -64 35 7 34 -11 39 -23 7z"/>
<path d="M6242 5397 c-30 -32 -29 -57 2 -57 14 0 28 5 31 10 3 6 15 10 26 10
23 0 26 -34 4 -56 -21 -22 -19 -51 5 -57 11 -3 20 -1 20 4 0 5 9 9 20 9 18 0
20 -7 20 -70 0 -63 -2 -71 -25 -86 -28 -18 -34 -54 -9 -54 23 0 56 20 77 47
10 13 23 20 28 17 6 -3 8 -8 5 -11 -3 -3 2 -18 11 -33 15 -26 15 -32 -2 -94
-15 -56 -16 -70 -5 -91 12 -22 10 -28 -24 -73 -21 -27 -52 -57 -69 -67 -63
-37 -121 -86 -143 -123 -24 -37 -32 -106 -15 -116 5 -4 3 -19 -5 -36 -14 -27
-13 -31 7 -60 13 -16 26 -30 30 -30 13 0 39 -31 39 -46 0 -8 -9 -13 -23 -12
-28 2 -91 -26 -130 -58 -16 -13 -38 -24 -50 -24 -28 0 -128 -28 -104 -29 9 -1
17 -7 17 -15 0 -8 12 -27 28 -43 20 -22 43 -32 92 -42 89 -17 109 -27 120 -57
13 -34 -4 -90 -37 -121 l-24 -23 25 -27 c23 -24 33 -28 86 -28 63 0 78 8 85
45 8 39 22 45 115 45 50 0 90 4 90 8 0 5 5 5 10 2 6 -3 10 -15 10 -26 0 -11
-4 -17 -10 -14 -5 3 -10 -1 -10 -9 0 -17 51 -26 140 -24 47 1 59 6 81 31 21
24 35 29 85 34 57 5 62 4 81 -21 12 -14 25 -26 31 -26 5 0 12 -6 15 -14 3 -7
37 -26 75 -40 67 -26 132 -32 265 -27 l27 1 0 120 c0 76 -4 120 -10 120 -6 0
-14 10 -18 21 -11 30 -74 50 -111 36 -34 -13 -63 -4 -55 18 13 34 -30 26 -132
-24 -59 -29 -112 -58 -119 -64 -7 -7 -39 -21 -71 -31 -95 -30 -114 -38 -114
-47 0 -5 -12 -9 -26 -9 -24 0 -25 2 -19 44 7 45 -6 69 -27 48 -6 -6 -22 -7
-44 0 -19 5 -40 8 -46 6 -25 -4 -88 26 -88 42 0 9 -15 21 -35 29 -19 7 -35 17
-35 22 0 6 -8 8 -18 5 -19 -6 -35 8 -59 51 -18 32 -16 51 7 65 11 7 20 18 20
25 0 6 21 15 48 19 26 3 52 9 57 12 26 16 77 17 250 4 198 -15 308 -18 324 -7
24 14 251 6 282 -11 15 -8 30 -14 34 -14 3 0 5 29 5 65 0 60 -2 65 -24 71 -14
3 -31 2 -38 -3 -7 -4 -67 -11 -133 -15 -66 -4 -129 -8 -140 -9 -34 -3 -369 12
-377 17 -5 3 -8 0 -8 -5 0 -20 -49 -11 -64 11 -13 18 -16 19 -16 5 0 -13 -10
-17 -42 -19 -53 -2 -45 -3 -153 22 -145 34 -144 52 2 51 105 0 160 -7 181 -23
7 -6 12 -7 12 -1 0 15 -45 53 -63 53 -9 0 -17 5 -17 10 0 6 -9 10 -20 10 -11
0 -20 5 -20 11 0 5 -16 17 -36 25 -29 12 -34 17 -24 29 7 8 27 15 46 15 18 0
36 5 39 10 3 6 19 10 34 10 25 0 28 3 23 25 -6 36 16 40 127 25 89 -11 359
-71 379 -84 4 -3 35 -9 68 -15 95 -16 217 -39 242 -47 l22 -6 0 441 0 441
-548 0 -549 0 -21 -23z m508 -147 c0 -5 -2 -10 -4 -10 -3 0 -8 5 -11 10 -3 6
-1 10 4 10 6 0 11 -4 11 -10z m272 -57 c61 -24 69 -33 30 -33 -79 0 -279 60
-267 80 6 10 179 -25 237 -47z m98 -43 c0 -5 -7 -7 -15 -4 -8 4 -15 8 -15 10
0 2 7 4 15 4 8 0 15 -4 15 -10z m160 -1110 c0 -5 11 -10 24 -10 33 0 37 -9 16
-45 -11 -21 -30 -35 -62 -45 -26 -8 -50 -18 -54 -22 -4 -5 -26 -9 -48 -9 -23
-1 -33 -3 -23 -6 25 -7 21 -22 -5 -20 -21 1 -60 27 -42 27 17 0 -32 29 -51 30
-18 1 -18 2 3 10 22 9 31 30 12 30 -5 0 -10 4 -10 10 0 17 74 41 120 39 25 -2
54 3 65 9 25 14 55 15 55 2z"/>
<path d="M7189 4173 c-12 -15 -12 -16 4 -10 10 4 23 7 28 7 5 0 9 5 9 10 0 16
-26 12 -41 -7z"/>
<path d="M5858 4163 c-20 -5 -22 -12 -9 -32 11 -17 41 -7 41 13 0 18 -10 24
-32 19z"/>
<path d="M5790 4081 c-8 -6 -18 -7 -24 -4 -5 4 -7 0 -4 -8 4 -11 -3 -14 -32
-11 -31 3 -38 0 -43 -17 -7 -27 0 -30 62 -32 37 -2 56 3 71 16 24 22 26 51 4
59 -19 7 -16 8 -34 -3z"/>
<path d="M3603 3678 c-24 -12 -43 -25 -43 -29 0 -10 163 1 174 12 5 5 4 14 -4
24 -18 22 -78 19 -127 -7z"/>
<path d="M4885 3505 c-83 -24 -110 -46 -147 -113 -12 -22 -24 -32 -41 -32 -16
0 -28 -9 -35 -25 -17 -36 -15 -45 14 -111 88 -200 265 -296 466 -253 77 17
176 70 228 123 48 50 47 59 -3 24 -20 -15 -47 -23 -77 -24 -25 0 -74 -13 -109
-29 -57 -24 -74 -27 -140 -23 -129 8 -226 70 -285 182 -29 54 -33 100 -12 121
23 23 80 55 99 55 16 0 17 -8 11 -77 -5 -69 -3 -83 18 -122 37 -71 86 -104
161 -109 85 -6 143 12 186 56 47 47 71 101 71 156 0 26 6 48 15 56 15 13 14
13 82 -36 24 -17 58 -12 66 10 7 18 -99 129 -143 149 -113 53 -291 62 -425 22z
m203 -67 c22 -22 14 -57 -13 -64 -50 -13 -81 22 -50 56 20 23 45 26 63 8z
m-88 -63 c10 -12 10 -18 0 -30 -7 -8 -16 -15 -21 -15 -16 0 -38 31 -33 45 8
19 38 19 54 0z"/>
<path d="M5948 3479 c-32 -4 -83 -18 -115 -31 -57 -23 -58 -24 -61 -65 -2 -24
-8 -43 -13 -43 -6 0 -7 -4 -4 -10 3 -5 22 -10 41 -10 l34 0 0 -65 c0 -105 49
-179 138 -211 74 -26 154 -13 222 35 64 46 88 95 89 184 1 53 3 57 24 57 28 0
57 -29 57 -56 0 -36 -47 -120 -91 -162 -24 -23 -69 -55 -99 -70 -49 -24 -66
-27 -155 -27 -118 0 -169 20 -246 95 -39 37 -49 55 -59 103 -12 58 -23 71 -34
40 -4 -10 1 -28 13 -44 11 -15 23 -40 26 -55 4 -16 9 -37 11 -46 3 -9 -2 -18
-10 -20 -26 -5 3 -49 57 -85 100 -67 238 -97 361 -79 50 8 120 50 184 110 44
41 112 159 112 195 0 10 7 24 15 31 29 24 17 58 -42 119 -67 67 -136 98 -248
112 -84 10 -131 9 -207 -2z m100 -91 c33 -33 -6 -75 -59 -64 -16 3 -29 1 -29
-4 0 -6 -9 -10 -20 -10 -11 0 -20 7 -20 15 0 8 9 15 19 15 12 0 23 11 30 30 8
24 16 30 38 30 16 0 34 -5 41 -12z"/>
<path d="M5376 3265 c-8 -21 39 -44 56 -27 6 6 8 18 5 26 -8 20 -53 21 -61 1z"/>
<path d="M4430 3151 c-8 -5 -33 -12 -55 -16 -51 -9 -65 -21 -65 -55 0 -25 3
-28 30 -26 36 3 47 -8 52 -48 2 -25 10 -32 45 -43 34 -12 44 -21 53 -49 9 -26
17 -34 35 -34 36 0 55 52 55 152 l0 83 -49 23 c-52 23 -77 27 -101 13z"/>
<path d="M4206 3004 c-11 -29 -6 -34 29 -34 24 0 37 -6 45 -20 16 -30 45 -42
74 -30 57 21 15 86 -48 75 -28 -6 -37 -4 -42 9 -8 21 -50 21 -58 0z"/>
<path d="M6584 2948 c-61 -71 -73 -118 -30 -118 14 0 28 5 31 11 4 5 18 14 31
19 13 5 24 18 24 28 0 10 5 23 11 29 8 8 6 17 -7 32 -23 27 -36 26 -60 -1z"/>
<path d="M5203 2573 c-2 -41 19 -83 41 -83 8 0 21 10 29 23 14 21 13 24 -4 35
-10 7 -19 21 -19 31 0 17 -18 31 -39 31 -4 0 -8 -17 -8 -37z"/>
<path d="M5660 2559 c-13 -6 -32 -18 -41 -27 -9 -9 -42 -41 -73 -71 -71 -68
-72 -81 -5 -81 101 0 219 84 219 155 0 34 -1 35 -37 34 -21 0 -49 -5 -63 -10z"/>
<path d="M4040 2449 c0 -5 5 -7 10 -4 6 3 10 8 10 11 0 2 -4 4 -10 4 -5 0 -10
-5 -10 -11z"/>
<path d="M4091 2428 c-35 -95 -35 -91 -11 -138 32 -62 60 -90 93 -90 31 0 32
2 15 30 -10 16 -9 28 5 66 16 44 16 50 1 90 -10 27 -25 46 -38 50 -11 3 -29 8
-38 10 -12 4 -21 -2 -27 -18z"/>
<path d="M4040 2410 c0 -5 5 -10 11 -10 5 0 7 5 4 10 -3 6 -8 10 -11 10 -2 0
-4 -4 -4 -10z"/>
<path d="M5375 2290 c-33 -34 -31 -40 8 -33 28 6 53 36 42 53 -10 16 -19 12
-50 -20z"/>
<path d="M5305 2222 c-23 -5 -35 -20 -34 -42 0 -10 2 -11 6 -2 2 6 10 12 18
12 13 0 41 28 34 33 -2 2 -13 1 -24 -1z"/>
<path d="M6572 2159 c-38 -34 -64 -120 -42 -134 6 -3 10 3 10 14 0 12 5 21 10
21 6 0 10 7 10 15 0 8 4 15 9 15 11 0 34 65 29 81 -2 5 -14 0 -26 -12z"/>
<path d="M6520 1871 c0 -18 6 -31 18 -35 9 -3 24 -9 32 -13 12 -5 13 -3 4 8
-6 8 -14 26 -18 42 -9 37 -36 36 -36 -2z"/>
<path d="M6396 1575 c8 -37 14 -45 14 -19 0 10 -5 26 -10 34 -8 11 -9 7 -4
-15z"/>
<path d="M6361 1484 c0 -11 3 -14 6 -6 3 7 2 16 -1 19 -3 4 -6 -2 -5 -13z"/>
<path d="M4300 1270 c-8 -5 -12 -12 -9 -15 8 -8 39 5 39 16 0 11 -11 11 -30
-1z"/>
<path d="M4186 1166 c-43 -40 -77 -78 -75 -84 4 -10 169 138 169 152 0 15 -21
0 -94 -68z"/>
<path d="M6225 550 c-3 -5 -1 -10 4 -10 6 0 11 5 11 10 0 6 -2 10 -4 10 -3 0
-8 -4 -11 -10z"/>
</g>
</svg>
